<?xml version="1.0" encoding="utf-8"?>
<!-- Generator: Adobe Illustrator 16.0.0, SVG Export Plug-In . SVG Version: 6.00 Build 0)  -->
<!DOCTYPE svg PUBLIC "-//W3C//DTD SVG 1.1//EN" "http://www.w3.org/Graphics/SVG/1.1/DTD/svg11.dtd">
<svg version="1.1" id="Layer_1" xmlns="http://www.w3.org/2000/svg" xmlns:xlink="http://www.w3.org/1999/xlink" x="0px" y="0px"
	 width="1024px" height="768px" viewBox="0 0 1024 768" enable-background="new 0 0 1024 768" xml:space="preserve">
<g>
	<path d="M220.956,409.876h662.947L611.782,750.489c-5.091,6.711-5.091,18.28,3.24,23.371c6.71,5.091,18.279,5.091,23.37-3.239
		l293.872-367.224c1.62-3.24,3.239-6.711,3.239-9.95l0,0l0,0l0,0c0-3.239-1.619-8.33-3.239-9.95L638.393,15.811
		c-3.239-3.24-8.33-6.71-13.421-6.71c-3.239,0-6.71,1.62-9.949,3.239c-6.711,5.091-8.331,16.661-3.24,23.371l272.121,340.614
		H220.956c-9.949,0-16.66,6.71-16.66,16.66S211.006,409.876,220.956,409.876z"/>
</g>
</svg>
