<?xml version="1.0" encoding="utf-8"?>
<!-- Generator: Adobe Illustrator 16.0.0, SVG Export Plug-In . SVG Version: 6.00 Build 0)  -->
<!DOCTYPE svg PUBLIC "-//W3C//DTD SVG 1.1//EN" "http://www.w3.org/Graphics/SVG/1.1/DTD/svg11.dtd">
<svg version="1.1" id="Layer_1" xmlns="http://www.w3.org/2000/svg" xmlns:xlink="http://www.w3.org/1999/xlink" x="0px" y="0px"
	 width="1024px" height="768px" viewBox="0 0 1024 768" enable-background="new 0 0 1024 768" xml:space="preserve">
<g>
	<path d="M918.844,376.572H255.896L528.018,35.958c5.091-6.711,5.091-18.28-3.24-23.371c-6.71-5.091-18.279-5.091-23.37,3.239
		L207.535,383.05c-1.62,3.24-3.239,6.71-3.239,9.95l0,0l0,0l0,0c0,3.239,1.619,8.33,3.239,9.95l293.872,367.687
		c3.239,3.24,8.33,6.711,13.421,6.711c3.239,0,6.71-1.62,9.949-3.239c6.711-5.091,8.331-16.661,3.24-23.371L255.896,410.123h662.947
		c9.949,0,16.66-6.71,16.66-16.66C935.504,383.513,928.794,376.572,918.844,376.572z"/>
</g>
</svg>
