<?xml version="1.0" encoding="utf-8"?>
<!-- Generator: Adobe Illustrator 16.0.0, SVG Export Plug-In . SVG Version: 6.00 Build 0)  -->
<!DOCTYPE svg PUBLIC "-//W3C//DTD SVG 1.1//EN" "http://www.w3.org/Graphics/SVG/1.1/DTD/svg11.dtd">
<svg version="1.1" id="Layer_1" xmlns="http://www.w3.org/2000/svg" xmlns:xlink="http://www.w3.org/1999/xlink" x="0px" y="0px"
	 width="1024px" height="768px" viewBox="0 0 1024 768" enable-background="new 0 0 1024 768" xml:space="preserve">
<g>
	<path fill="#138FCE" d="M975.534,269.193c1.575,1.648,2.356,3.743,2.356,6.289c0,2.571-0.781,4.671-2.356,6.308
		c-1.575,1.63-3.468,2.448-5.715,2.448c-2.101,0-3.81-0.635-5.129-1.905v9.317h-5.263l-0.012-24.496h5.263l0.012,1.484
		c1.319-1.27,3.028-1.911,5.129-1.911C972.066,266.726,973.959,267.551,975.534,269.193z M971.603,278.583
		c0.745-0.793,1.123-1.825,1.123-3.102c0-1.245-0.378-2.271-1.123-3.077c-0.745-0.794-1.71-1.196-2.857-1.196
		c-1.1,0-2.052,0.402-2.857,1.215c-0.794,0.812-1.197,1.838-1.197,3.059c0,1.252,0.403,2.284,1.197,3.077
		c0.806,0.807,1.758,1.209,2.857,1.209C969.893,279.768,970.857,279.365,971.603,278.583z"/>
	<path fill="#138FCE" d="M207.296,304.142c17.047,17.89,25.583,40.664,25.583,68.347c0,27.902-8.536,50.75-25.583,68.523
		c-17.047,17.75-37.733,26.64-62.094,26.64c-22.896,0-41.482-6.899-55.818-20.747v101.268H32.162l-0.061-266.218h57.21l0.073,16.107
		c14.336-13.836,32.922-20.759,55.818-20.759C169.563,277.301,190.249,286.252,207.296,304.142z M164.557,406.118
		c8.096-8.591,12.15-19.794,12.15-33.63c0-13.604-4.054-24.752-12.15-33.465c-8.133-8.694-18.512-13.048-31.151-13.048
		c-11.906,0-22.225,4.408-30.968,13.243c-8.682,8.811-13.054,19.91-13.054,33.27c0,13.592,4.372,24.752,13.054,33.447
		c8.744,8.706,19.062,13.065,30.968,13.065C146.044,419.001,156.424,414.703,164.557,406.118z"/>
	<path fill="#138FCE" d="M436.405,386.238H304.73c2.394,10.733,7.034,19.209,13.933,25.399c6.936,6.21,15.142,9.306,24.704,9.306
		c17.89,0,30.65-6.906,38.282-20.748l50.812,10.368c-7.632,18.61-19.135,32.616-34.521,42.043
		c-15.387,9.428-33.594,14.135-54.572,14.135c-26.486,0-48.882-8.89-67.26-26.651c-18.366-17.768-27.537-40.608-27.537-68.523
		c0-27.671,9.171-50.457,27.537-68.347c18.378-17.884,40.92-26.834,67.614-26.834c26.01,0,47.844,8.719,65.489,26.12
		c17.658,17.425,26.706,40.438,27.195,69.061V386.238z M320.471,330.42c-7.168,5.013-12.064,11.93-14.69,20.759h74.099
		c-2.662-9.317-7.168-16.351-13.604-21.113c-6.447-4.775-13.97-7.168-22.554-7.168C335.381,322.898,327.639,325.414,320.471,330.42z
		"/>
	<path fill="#138FCE" d="M585.383,283.297l0.66,42.422l-10.856,0.897c-41.262,0-62.241,34.968-62.241,79.819v56.172h-57.271
		l0.123-180.647l57.161,0.091l-0.013,35.291c14.788-24.581,33.068-35.474,59.555-35.474
		C577.287,281.868,581.561,282.338,585.383,283.297z"/>
	<path fill="#138FCE" d="M730.441,453.205c-16.461,8.816-32.8,13.237-49.004,13.237c-22.664,0-40.261-6.081-52.79-18.244
		c-12.528-12.162-18.793-29.936-18.793-53.314v-67.986l-36.72-0.226l-3.188-44.822l39.943,0.104l-0.036-26.474l57.247-34.131v60.605
		h52.96v44.944h-52.96v62.259c0,17.414,7.985,26.121,23.982,26.121c9.049,0,17.779-2.395,26.133-7.156L730.441,453.205z"/>
	<path fill="#138FCE" d="M906.577,303.287c19.11,17.657,28.636,40.303,28.636,67.98c0,27.916-9.525,50.689-28.636,68.334
		c-19.062,17.658-42.312,26.48-69.751,26.48c-27.902,0-51.446-8.822-70.691-26.48c-19.184-17.646-28.77-40.419-28.77-68.334
		c0-27.677,9.586-50.323,28.77-67.98c19.245-17.658,42.789-26.486,70.691-26.486C864.265,276.801,887.516,285.629,906.577,303.287z
		 M867.244,404.714c8.561-8.694,12.871-19.855,12.871-33.447c0-13.603-4.371-24.746-13.054-33.459
		c-8.731-8.701-18.817-13.054-30.235-13.054c-11.942,0-22.311,4.353-31.139,13.054c-8.829,8.713-13.237,19.856-13.237,33.459
		c0,13.591,4.347,24.752,13.066,33.447c8.694,8.707,19.135,13.066,31.31,13.066C848.512,417.78,858.647,413.421,867.244,404.714z"/>
	<path fill="#138FCE" d="M985.657,259.778c-5.104-5.006-11.295-7.498-18.598-7.498c-7.302,0-13.506,2.491-18.634,7.498
		c-5.117,4.995-7.682,11.295-7.682,18.891c0,7.498,2.564,13.726,7.682,18.671c5.128,4.952,11.332,7.425,18.634,7.425
		c7.303,0,13.493-2.473,18.598-7.425c5.104-4.945,7.645-11.173,7.645-18.671C993.302,271.073,990.762,264.772,985.657,259.778z
		 M982.36,294.269c-4.2,4.146-9.305,6.222-15.301,6.222c-5.995,0-11.112-2.076-15.337-6.222c-4.226-4.146-6.338-9.372-6.338-15.673
		c0-6.35,2.112-11.625,6.338-15.826c4.225-4.194,9.342-6.295,15.337-6.295c5.996,0,11.101,2.113,15.301,6.338
		c4.201,4.219,6.302,9.482,6.302,15.783C988.662,284.896,986.562,290.123,982.36,294.269z"/>
</g>
</svg>
